# xmcd
#
# Track frame offsets: 
#        182
#        13181
#        26420
#        40649
#        54232
#        69332
#        83629
#        97904
#        111108
#        125240
#        139835
#        154681
#        168528
#        183691
#        197267
#        211959
#        224734
#        238404
#        252229
#        266346
#        279763
#        293003
#
# Disc length: 4069 seconds
#
# Revision: 2
# Processed by: cddbd v1.5.2PL0 Copyright (c) Steve Scherf et al.
# Submitted via: ExactAudioCopyFreeDBPlugin 1.0
#
DISCID=390fe316
DTITLE=Buddy Johnson - The Chronological Buddy Johnson and His Band, 1
DTITLE=942-1947
DYEAR=1999
DGENRE=Rhythm and Blues
TTITLE0=My Lonely Cabin
TTITLE1=I Ain't Mad with You
TTITLE2=I Done Found Out
TTITLE3=Let's Beat Out Some Love
TTITLE4=I'll Always Be with You
TTITLE5=When My Man Comes Home
TTITLE6=I Still Love You
TTITLE7=South Main
TTITLE8=That's the Stuff You Gotta Watch
TTITLE9=One of Them Good Ones
TTITLE10=They All Say I'm the Biggest Fool
TTITLE11=Fine Brown Frame
TTITLE12=If You Never Return
TTITLE13=Opus Two
TTITLE14=Since I Fell for You
TTITLE15=Walk 'Em
TTITLE16=Darlin' Baby
TTITLE17=Since You Went Away
TTITLE18=One Thing I Nver Could Do
TTITLE19=I Wonder Where Our Love Has Gone
TTITLE20=You'll Get the Blues
TTITLE21=Hey Sweet Potato
EXTD=Series: Chronogical Classics Nr 1079
EXTT0=
EXTT1=
EXTT2=
EXTT3=
EXTT4=
EXTT5=
EXTT6=
EXTT7=
EXTT8=
EXTT9=
EXTT10=
EXTT11=
EXTT12=
EXTT13=
EXTT14=
EXTT15=
EXTT16=
EXTT17=
EXTT18=
EXTT19=
EXTT20=
EXTT21=
PLAYORDER=
